<mxfile host="app.diagrams.net" agent="Mozilla/5.0 (Windows NT 10.0; Win64; x64) AppleWebKit/537.36 (KHTML, like Gecko) Chrome/129.0.0.0 Safari/537.36" version="24.7.17">
  <diagram name="Página-1" id="ohNPjN_BqR4IqLDz7Dok">
    <mxGraphModel dx="1187" dy="1765" grid="0" gridSize="10" guides="1" tooltips="1" connect="1" arrows="1" fold="1" page="0" pageScale="1" pageWidth="827" pageHeight="1169" math="0" shadow="0">
      <root>
        <mxCell id="0" />
        <mxCell id="1" parent="0" />
        <mxCell id="Mit0_zZkryS0uGuuiCqV-14" value="" style="group" vertex="1" connectable="0" parent="1">
          <mxGeometry x="-144" y="-240" width="897" height="962" as="geometry" />
        </mxCell>
        <mxCell id="BYih-mlSwQ1MUp8AWNJi-67" style="edgeStyle=none;curved=1;rounded=0;orthogonalLoop=1;jettySize=auto;html=1;fontSize=12;startSize=8;endSize=8;endArrow=none;endFill=0;" parent="Mit0_zZkryS0uGuuiCqV-14" source="BYih-mlSwQ1MUp8AWNJi-1" target="BYih-mlSwQ1MUp8AWNJi-58" edge="1">
          <mxGeometry relative="1" as="geometry" />
        </mxCell>
        <mxCell id="BYih-mlSwQ1MUp8AWNJi-1" value="&lt;font style=&quot;font-size: 19px;&quot;&gt;EMPLEADO&lt;/font&gt;" style="rounded=1;whiteSpace=wrap;html=1;fillColor=#d5e8d4;strokeColor=#82b366;" parent="Mit0_zZkryS0uGuuiCqV-14" vertex="1">
          <mxGeometry x="91.71779141104294" y="295.6343873517787" width="110.06134969325153" height="57.03557312252964" as="geometry" />
        </mxCell>
        <mxCell id="BYih-mlSwQ1MUp8AWNJi-69" style="edgeStyle=none;curved=1;rounded=0;orthogonalLoop=1;jettySize=auto;html=1;entryX=0.5;entryY=0;entryDx=0;entryDy=0;fontSize=12;startSize=8;endSize=8;endArrow=none;endFill=0;" parent="Mit0_zZkryS0uGuuiCqV-14" source="BYih-mlSwQ1MUp8AWNJi-3" target="BYih-mlSwQ1MUp8AWNJi-54" edge="1">
          <mxGeometry relative="1" as="geometry" />
        </mxCell>
        <mxCell id="BYih-mlSwQ1MUp8AWNJi-3" value="&lt;font style=&quot;font-size: 19px;&quot;&gt;SOCIO&lt;/font&gt;" style="rounded=1;whiteSpace=wrap;html=1;fillColor=#d5e8d4;strokeColor=#82b366;" parent="Mit0_zZkryS0uGuuiCqV-14" vertex="1">
          <mxGeometry x="260.47852760736197" y="295.6343873517787" width="110.06134969325153" height="57.03557312252964" as="geometry" />
        </mxCell>
        <mxCell id="BYih-mlSwQ1MUp8AWNJi-4" value="&lt;font style=&quot;font-size: 19px;&quot;&gt;AMARRE&lt;/font&gt;" style="rounded=1;whiteSpace=wrap;html=1;fillColor=#d5e8d4;strokeColor=#82b366;" parent="Mit0_zZkryS0uGuuiCqV-14" vertex="1">
          <mxGeometry x="636.5214723926381" y="568.4545454545455" width="110.06134969325153" height="57.03557312252964" as="geometry" />
        </mxCell>
        <mxCell id="BYih-mlSwQ1MUp8AWNJi-5" value="&lt;font style=&quot;font-size: 19px;&quot;&gt;EMBARCACIÓN&lt;/font&gt;" style="rounded=1;whiteSpace=wrap;html=1;fillColor=#d5e8d4;strokeColor=#82b366;" parent="Mit0_zZkryS0uGuuiCqV-14" vertex="1">
          <mxGeometry x="619.5536809815951" y="295.6343873517787" width="147.66564417177915" height="57.03557312252964" as="geometry" />
        </mxCell>
        <mxCell id="BYih-mlSwQ1MUp8AWNJi-64" style="edgeStyle=none;curved=1;rounded=0;orthogonalLoop=1;jettySize=auto;html=1;entryX=0;entryY=0.5;entryDx=0;entryDy=0;fontSize=12;startSize=8;endSize=8;" parent="Mit0_zZkryS0uGuuiCqV-14" source="BYih-mlSwQ1MUp8AWNJi-6" target="BYih-mlSwQ1MUp8AWNJi-62" edge="1">
          <mxGeometry relative="1" as="geometry" />
        </mxCell>
        <mxCell id="BYih-mlSwQ1MUp8AWNJi-6" value="&lt;font style=&quot;font-size: 19px;&quot;&gt;ZONA&lt;/font&gt;" style="rounded=1;whiteSpace=wrap;html=1;fillColor=#d5e8d4;strokeColor=#82b366;" parent="Mit0_zZkryS0uGuuiCqV-14" vertex="1">
          <mxGeometry x="95.38650306748467" y="829.8675889328063" width="110.06134969325153" height="57.03557312252964" as="geometry" />
        </mxCell>
        <mxCell id="BYih-mlSwQ1MUp8AWNJi-10" style="edgeStyle=none;curved=1;rounded=0;orthogonalLoop=1;jettySize=auto;html=1;entryX=0.5;entryY=0;entryDx=0;entryDy=0;fontSize=12;startSize=8;endSize=8;endArrow=none;endFill=0;" parent="Mit0_zZkryS0uGuuiCqV-14" source="BYih-mlSwQ1MUp8AWNJi-7" target="BYih-mlSwQ1MUp8AWNJi-9" edge="1">
          <mxGeometry relative="1" as="geometry" />
        </mxCell>
        <mxCell id="BYih-mlSwQ1MUp8AWNJi-7" value="&lt;span style=&quot;font-size: 19px;&quot;&gt;PERSONA&lt;/span&gt;" style="rounded=1;whiteSpace=wrap;html=1;fillColor=#d5e8d4;strokeColor=#82b366;" parent="Mit0_zZkryS0uGuuiCqV-14" vertex="1">
          <mxGeometry x="166.92638036809817" y="90.30632411067194" width="110.06134969325153" height="48.480237154150196" as="geometry" />
        </mxCell>
        <mxCell id="BYih-mlSwQ1MUp8AWNJi-8" value="" style="triangle;whiteSpace=wrap;html=1;rotation=90;" parent="Mit0_zZkryS0uGuuiCqV-14" vertex="1">
          <mxGeometry x="194.44171779141104" y="211.9822134387352" width="55.030674846625764" height="76.04743083003953" as="geometry" />
        </mxCell>
        <mxCell id="BYih-mlSwQ1MUp8AWNJi-9" value="" style="ellipse;whiteSpace=wrap;html=1;aspect=fixed;" parent="Mit0_zZkryS0uGuuiCqV-14" vertex="1">
          <mxGeometry x="205.4478527607362" y="188.2173913043478" width="33.018404907975466" height="33.018404907975466" as="geometry" />
        </mxCell>
        <mxCell id="BYih-mlSwQ1MUp8AWNJi-11" value="" style="endArrow=none;html=1;rounded=0;fontSize=12;startSize=8;endSize=8;curved=1;" parent="Mit0_zZkryS0uGuuiCqV-14" edge="1">
          <mxGeometry width="50" height="50" relative="1" as="geometry">
            <mxPoint x="155.92024539877303" y="296.5849802371541" as="sourcePoint" />
            <mxPoint x="201.7791411042945" y="249.05533596837944" as="targetPoint" />
          </mxGeometry>
        </mxCell>
        <mxCell id="BYih-mlSwQ1MUp8AWNJi-13" value="" style="endArrow=none;html=1;rounded=0;fontSize=12;startSize=8;endSize=8;curved=1;" parent="Mit0_zZkryS0uGuuiCqV-14" edge="1">
          <mxGeometry width="50" height="50" relative="1" as="geometry">
            <mxPoint x="242.1349693251534" y="247.15415019762847" as="sourcePoint" />
            <mxPoint x="307.2546012269939" y="293.73320158102763" as="targetPoint" />
          </mxGeometry>
        </mxCell>
        <mxCell id="BYih-mlSwQ1MUp8AWNJi-15" value="Nombre" style="text;html=1;align=center;verticalAlign=middle;whiteSpace=wrap;rounded=0;fontSize=16;" parent="Mit0_zZkryS0uGuuiCqV-14" vertex="1">
          <mxGeometry x="143.99693251533742" y="28.51778656126482" width="55.030674846625764" height="28.51778656126482" as="geometry" />
        </mxCell>
        <mxCell id="BYih-mlSwQ1MUp8AWNJi-16" value="" style="endArrow=circle;html=1;rounded=0;fontSize=12;startSize=8;endSize=8;curved=1;entryX=0.5;entryY=1;entryDx=0;entryDy=0;endFill=0;" parent="Mit0_zZkryS0uGuuiCqV-14" edge="1">
          <mxGeometry width="50" height="50" relative="1" as="geometry">
            <mxPoint x="171.2462883435583" y="90.30632411067194" as="sourcePoint" />
            <mxPoint x="171.2462883435583" y="54.183794466403164" as="targetPoint" />
          </mxGeometry>
        </mxCell>
        <mxCell id="BYih-mlSwQ1MUp8AWNJi-17" value="Dirección" style="text;html=1;align=center;verticalAlign=middle;whiteSpace=wrap;rounded=0;fontSize=16;" parent="Mit0_zZkryS0uGuuiCqV-14" vertex="1">
          <mxGeometry x="243.96932515337423" y="28.51778656126482" width="55.030674846625764" height="28.51778656126482" as="geometry" />
        </mxCell>
        <mxCell id="BYih-mlSwQ1MUp8AWNJi-18" value="" style="endArrow=circle;html=1;rounded=0;fontSize=12;startSize=8;endSize=8;curved=1;entryX=0.5;entryY=1;entryDx=0;entryDy=0;endFill=0;" parent="Mit0_zZkryS0uGuuiCqV-14" edge="1">
          <mxGeometry width="50" height="50" relative="1" as="geometry">
            <mxPoint x="270.5674846625767" y="90.30632411067194" as="sourcePoint" />
            <mxPoint x="270.5674846625767" y="54.183794466403164" as="targetPoint" />
          </mxGeometry>
        </mxCell>
        <mxCell id="BYih-mlSwQ1MUp8AWNJi-19" value="Telf" style="text;html=1;align=center;verticalAlign=middle;whiteSpace=wrap;rounded=0;fontSize=16;" parent="Mit0_zZkryS0uGuuiCqV-14" vertex="1">
          <mxGeometry x="328.3496932515338" y="92.20750988142292" width="55.030674846625764" height="28.51778656126482" as="geometry" />
        </mxCell>
        <mxCell id="BYih-mlSwQ1MUp8AWNJi-20" value="" style="endArrow=circle;html=1;rounded=0;fontSize=12;startSize=8;endSize=8;curved=1;entryX=0.5;entryY=1;entryDx=0;entryDy=0;endFill=0;" parent="Mit0_zZkryS0uGuuiCqV-14" edge="1">
          <mxGeometry width="50" height="50" relative="1" as="geometry">
            <mxPoint x="277.90490797546016" y="106.46640316205533" as="sourcePoint" />
            <mxPoint x="328.3496932515338" y="100.76284584980237" as="targetPoint" />
          </mxGeometry>
        </mxCell>
        <mxCell id="BYih-mlSwQ1MUp8AWNJi-26" value="Código" style="text;html=1;align=center;verticalAlign=middle;whiteSpace=wrap;rounded=0;fontSize=16;" parent="Mit0_zZkryS0uGuuiCqV-14" vertex="1">
          <mxGeometry x="67.87116564417178" y="233.84584980237153" width="55.030674846625764" height="28.51778656126482" as="geometry" />
        </mxCell>
        <mxCell id="BYih-mlSwQ1MUp8AWNJi-27" value="" style="endArrow=oval;html=1;rounded=0;fontSize=12;startSize=8;endSize=8;curved=1;entryX=0.5;entryY=1;entryDx=0;entryDy=0;endFill=1;strokeColor=default;exitX=0.032;exitY=0.04;exitDx=0;exitDy=0;exitPerimeter=0;" parent="Mit0_zZkryS0uGuuiCqV-14" source="BYih-mlSwQ1MUp8AWNJi-1" target="BYih-mlSwQ1MUp8AWNJi-26" edge="1">
          <mxGeometry width="50" height="50" relative="1" as="geometry">
            <mxPoint x="95.38650306748467" y="286.1284584980237" as="sourcePoint" />
            <mxPoint x="95.12052147239262" y="261.4130434782609" as="targetPoint" />
          </mxGeometry>
        </mxCell>
        <mxCell id="BYih-mlSwQ1MUp8AWNJi-72" style="edgeStyle=none;curved=1;rounded=0;orthogonalLoop=1;jettySize=auto;html=1;entryX=0.5;entryY=0;entryDx=0;entryDy=0;fontSize=12;startSize=8;endSize=8;endArrow=none;endFill=0;" parent="Mit0_zZkryS0uGuuiCqV-14" source="BYih-mlSwQ1MUp8AWNJi-50" target="BYih-mlSwQ1MUp8AWNJi-4" edge="1">
          <mxGeometry relative="1" as="geometry" />
        </mxCell>
        <mxCell id="BYih-mlSwQ1MUp8AWNJi-50" value="Ocupar" style="rhombus;whiteSpace=wrap;html=1;" parent="Mit0_zZkryS0uGuuiCqV-14" vertex="1">
          <mxGeometry x="654.8650306748466" y="417.31027667984193" width="73.37423312883436" height="76.04743083003953" as="geometry" />
        </mxCell>
        <mxCell id="BYih-mlSwQ1MUp8AWNJi-53" value="1:1" style="text;html=1;align=center;verticalAlign=middle;whiteSpace=wrap;rounded=0;fontSize=16;" parent="Mit0_zZkryS0uGuuiCqV-14" vertex="1">
          <mxGeometry x="728.2392638036811" y="444.87747035573125" width="55.030674846625764" height="28.51778656126482" as="geometry" />
        </mxCell>
        <mxCell id="BYih-mlSwQ1MUp8AWNJi-70" style="edgeStyle=none;curved=1;rounded=0;orthogonalLoop=1;jettySize=auto;html=1;fontSize=12;startSize=8;endSize=8;endArrow=none;endFill=0;" parent="Mit0_zZkryS0uGuuiCqV-14" source="BYih-mlSwQ1MUp8AWNJi-54" target="BYih-mlSwQ1MUp8AWNJi-4" edge="1">
          <mxGeometry relative="1" as="geometry" />
        </mxCell>
        <mxCell id="BYih-mlSwQ1MUp8AWNJi-54" value="Alquila" style="rhombus;whiteSpace=wrap;html=1;" parent="Mit0_zZkryS0uGuuiCqV-14" vertex="1">
          <mxGeometry x="285.2423312883436" y="561.800395256917" width="73.37423312883436" height="76.04743083003953" as="geometry" />
        </mxCell>
        <mxCell id="BYih-mlSwQ1MUp8AWNJi-57" value="N:M" style="text;html=1;align=center;verticalAlign=middle;whiteSpace=wrap;rounded=0;fontSize=16;" parent="Mit0_zZkryS0uGuuiCqV-14" vertex="1">
          <mxGeometry x="294.4141104294479" y="643.5513833992095" width="55.030674846625764" height="28.51778656126482" as="geometry" />
        </mxCell>
        <mxCell id="BYih-mlSwQ1MUp8AWNJi-68" style="edgeStyle=none;curved=1;rounded=0;orthogonalLoop=1;jettySize=auto;html=1;entryX=0.5;entryY=0;entryDx=0;entryDy=0;fontSize=12;startSize=8;endSize=8;endArrow=none;endFill=0;" parent="Mit0_zZkryS0uGuuiCqV-14" source="BYih-mlSwQ1MUp8AWNJi-58" target="BYih-mlSwQ1MUp8AWNJi-6" edge="1">
          <mxGeometry relative="1" as="geometry" />
        </mxCell>
        <mxCell id="BYih-mlSwQ1MUp8AWNJi-58" value="Trabaja" style="rhombus;whiteSpace=wrap;html=1;" parent="Mit0_zZkryS0uGuuiCqV-14" vertex="1">
          <mxGeometry x="111.8957055214724" y="549.4426877470356" width="73.37423312883436" height="76.04743083003953" as="geometry" />
        </mxCell>
        <mxCell id="BYih-mlSwQ1MUp8AWNJi-61" value="N:M" style="text;html=1;align=center;verticalAlign=middle;whiteSpace=wrap;rounded=0;fontSize=16;" parent="Mit0_zZkryS0uGuuiCqV-14" vertex="1">
          <mxGeometry x="53.196319018404914" y="576.0592885375494" width="55.030674846625764" height="28.51778656126482" as="geometry" />
        </mxCell>
        <mxCell id="BYih-mlSwQ1MUp8AWNJi-65" style="edgeStyle=none;curved=1;rounded=0;orthogonalLoop=1;jettySize=auto;html=1;fontSize=12;startSize=8;endSize=8;endArrow=none;endFill=0;" parent="Mit0_zZkryS0uGuuiCqV-14" source="BYih-mlSwQ1MUp8AWNJi-62" edge="1">
          <mxGeometry relative="1" as="geometry">
            <mxPoint x="691.5521472392638" y="626.4407114624506" as="targetPoint" />
          </mxGeometry>
        </mxCell>
        <mxCell id="BYih-mlSwQ1MUp8AWNJi-62" value="Tener" style="rhombus;whiteSpace=wrap;html=1;" parent="Mit0_zZkryS0uGuuiCqV-14" vertex="1">
          <mxGeometry x="654.8650306748466" y="820.3616600790514" width="73.37423312883436" height="76.04743083003953" as="geometry" />
        </mxCell>
        <mxCell id="BYih-mlSwQ1MUp8AWNJi-66" value="1:N" style="text;html=1;align=center;verticalAlign=middle;whiteSpace=wrap;rounded=0;fontSize=16;" parent="Mit0_zZkryS0uGuuiCqV-14" vertex="1">
          <mxGeometry x="665.8711656441718" y="904.9644268774704" width="55.030674846625764" height="28.51778656126482" as="geometry" />
        </mxCell>
        <mxCell id="BYih-mlSwQ1MUp8AWNJi-71" style="edgeStyle=none;curved=1;rounded=0;orthogonalLoop=1;jettySize=auto;html=1;fontSize=12;startSize=8;endSize=8;endArrow=none;endFill=0;" parent="Mit0_zZkryS0uGuuiCqV-14" source="BYih-mlSwQ1MUp8AWNJi-5" edge="1">
          <mxGeometry relative="1" as="geometry">
            <mxPoint x="693.3865030674847" y="413.50790513833994" as="targetPoint" />
          </mxGeometry>
        </mxCell>
        <mxCell id="BYih-mlSwQ1MUp8AWNJi-76" value="Matrícula" style="text;html=1;align=center;verticalAlign=middle;whiteSpace=wrap;rounded=0;fontSize=16;" parent="Mit0_zZkryS0uGuuiCqV-14" vertex="1">
          <mxGeometry x="602.5858895705522" y="230.99407114624506" width="55.030674846625764" height="28.51778656126482" as="geometry" />
        </mxCell>
        <mxCell id="BYih-mlSwQ1MUp8AWNJi-77" value="" style="endArrow=oval;html=1;rounded=0;fontSize=12;startSize=8;endSize=8;curved=1;entryX=0.5;entryY=1;entryDx=0;entryDy=0;endFill=1;" parent="Mit0_zZkryS0uGuuiCqV-14" edge="1">
          <mxGeometry width="50" height="50" relative="1" as="geometry">
            <mxPoint x="629.835245398773" y="295.6343873517787" as="sourcePoint" />
            <mxPoint x="629.835245398773" y="259.5118577075099" as="targetPoint" />
          </mxGeometry>
        </mxCell>
        <mxCell id="BYih-mlSwQ1MUp8AWNJi-78" value="Nombre" style="text;html=1;align=center;verticalAlign=middle;whiteSpace=wrap;rounded=0;fontSize=16;" parent="Mit0_zZkryS0uGuuiCqV-14" vertex="1">
          <mxGeometry x="664.036809815951" y="202.47628458498025" width="55.030674846625764" height="28.51778656126482" as="geometry" />
        </mxCell>
        <mxCell id="BYih-mlSwQ1MUp8AWNJi-79" value="" style="endArrow=circle;html=1;rounded=0;fontSize=12;startSize=8;endSize=8;curved=1;endFill=0;" parent="Mit0_zZkryS0uGuuiCqV-14" target="BYih-mlSwQ1MUp8AWNJi-78" edge="1">
          <mxGeometry width="50" height="50" relative="1" as="geometry">
            <mxPoint x="691.2861656441718" y="295.6343873517787" as="sourcePoint" />
            <mxPoint x="691.2861656441718" y="259.5118577075099" as="targetPoint" />
          </mxGeometry>
        </mxCell>
        <mxCell id="BYih-mlSwQ1MUp8AWNJi-80" value="Tipo" style="text;html=1;align=center;verticalAlign=middle;whiteSpace=wrap;rounded=0;fontSize=16;" parent="Mit0_zZkryS0uGuuiCqV-14" vertex="1">
          <mxGeometry x="732.8251533742332" y="235.74703557312253" width="55.030674846625764" height="28.51778656126482" as="geometry" />
        </mxCell>
        <mxCell id="BYih-mlSwQ1MUp8AWNJi-81" value="" style="endArrow=circle;html=1;rounded=0;fontSize=12;startSize=8;endSize=8;curved=1;entryX=0.5;entryY=1;entryDx=0;entryDy=0;endFill=0;" parent="Mit0_zZkryS0uGuuiCqV-14" edge="1">
          <mxGeometry width="50" height="50" relative="1" as="geometry">
            <mxPoint x="760.0745092024541" y="300.3873517786561" as="sourcePoint" />
            <mxPoint x="760.0745092024541" y="264.2648221343873" as="targetPoint" />
          </mxGeometry>
        </mxCell>
        <mxCell id="BYih-mlSwQ1MUp8AWNJi-82" value="Dimensiones" style="text;html=1;align=center;verticalAlign=middle;whiteSpace=wrap;rounded=0;fontSize=16;" parent="Mit0_zZkryS0uGuuiCqV-14" vertex="1">
          <mxGeometry x="797.9447852760737" y="280.42490118577075" width="55.030674846625764" height="28.51778656126482" as="geometry" />
        </mxCell>
        <mxCell id="BYih-mlSwQ1MUp8AWNJi-83" value="" style="endArrow=circle;html=1;rounded=0;fontSize=12;startSize=8;endSize=8;curved=1;entryX=0.5;entryY=1;entryDx=0;entryDy=0;endFill=0;exitX=0.991;exitY=0.633;exitDx=0;exitDy=0;exitPerimeter=0;" parent="Mit0_zZkryS0uGuuiCqV-14" source="BYih-mlSwQ1MUp8AWNJi-5" edge="1">
          <mxGeometry width="50" height="50" relative="1" as="geometry">
            <mxPoint x="825.1941411042945" y="345.0652173913044" as="sourcePoint" />
            <mxPoint x="825.1941411042945" y="308.94268774703556" as="targetPoint" />
          </mxGeometry>
        </mxCell>
        <mxCell id="BYih-mlSwQ1MUp8AWNJi-84" value="Nº_amarre" style="text;html=1;align=center;verticalAlign=middle;whiteSpace=wrap;rounded=0;fontSize=16;" parent="Mit0_zZkryS0uGuuiCqV-14" vertex="1">
          <mxGeometry x="719.0674846625767" y="497.16007905138343" width="55.030674846625764" height="28.51778656126482" as="geometry" />
        </mxCell>
        <mxCell id="BYih-mlSwQ1MUp8AWNJi-85" value="" style="endArrow=oval;html=1;rounded=0;fontSize=12;startSize=8;endSize=8;curved=1;entryX=0.5;entryY=1;entryDx=0;entryDy=0;endFill=1;exitX=0.931;exitY=0.047;exitDx=0;exitDy=0;exitPerimeter=0;" parent="Mit0_zZkryS0uGuuiCqV-14" source="BYih-mlSwQ1MUp8AWNJi-4" target="BYih-mlSwQ1MUp8AWNJi-84" edge="1">
          <mxGeometry width="50" height="50" relative="1" as="geometry">
            <mxPoint x="743.5653067484664" y="562.7509881422925" as="sourcePoint" />
            <mxPoint x="743.5653067484664" y="526.6284584980236" as="targetPoint" />
          </mxGeometry>
        </mxCell>
        <mxCell id="BYih-mlSwQ1MUp8AWNJi-86" value="Contador" style="text;html=1;align=center;verticalAlign=middle;whiteSpace=wrap;rounded=0;fontSize=16;" parent="Mit0_zZkryS0uGuuiCqV-14" vertex="1">
          <mxGeometry x="771.3466257668712" y="588.4169960474309" width="55.030674846625764" height="28.51778656126482" as="geometry" />
        </mxCell>
        <mxCell id="BYih-mlSwQ1MUp8AWNJi-87" value="" style="endArrow=circle;html=1;rounded=0;fontSize=12;startSize=8;endSize=8;curved=1;entryX=0.5;entryY=1;entryDx=0;entryDy=0;endFill=0;" parent="Mit0_zZkryS0uGuuiCqV-14" source="BYih-mlSwQ1MUp8AWNJi-4" edge="1">
          <mxGeometry width="50" height="50" relative="1" as="geometry">
            <mxPoint x="753.0030674846626" y="586.5158102766799" as="sourcePoint" />
            <mxPoint x="812.3536503067485" y="578.9110671936759" as="targetPoint" />
          </mxGeometry>
        </mxCell>
        <mxCell id="BYih-mlSwQ1MUp8AWNJi-88" value="" style="endArrow=classic;html=1;rounded=0;fontSize=12;startSize=8;endSize=8;curved=1;" parent="Mit0_zZkryS0uGuuiCqV-14" edge="1">
          <mxGeometry width="50" height="50" relative="1" as="geometry">
            <mxPoint x="747.5" y="589.3675889328063" as="sourcePoint" />
            <mxPoint x="794.2760736196319" y="580.8122529644269" as="targetPoint" />
          </mxGeometry>
        </mxCell>
        <mxCell id="BYih-mlSwQ1MUp8AWNJi-89" value="" style="endArrow=circle;html=1;rounded=0;fontSize=12;startSize=8;endSize=8;curved=1;endFill=0;" parent="Mit0_zZkryS0uGuuiCqV-14" edge="1">
          <mxGeometry width="50" height="50" relative="1" as="geometry">
            <mxPoint x="806.1993865030674" y="571.306324110672" as="sourcePoint" />
            <mxPoint x="844.7208588957056" y="533.2826086956522" as="targetPoint" />
          </mxGeometry>
        </mxCell>
        <mxCell id="BYih-mlSwQ1MUp8AWNJi-90" value="" style="endArrow=circle;html=1;rounded=0;fontSize=12;startSize=8;endSize=8;curved=1;endFill=0;" parent="Mit0_zZkryS0uGuuiCqV-14" edge="1">
          <mxGeometry width="50" height="50" relative="1" as="geometry">
            <mxPoint x="811.7024539877301" y="584.6146245059288" as="sourcePoint" />
            <mxPoint x="852.9754601226994" y="603.6264822134387" as="targetPoint" />
          </mxGeometry>
        </mxCell>
        <mxCell id="BYih-mlSwQ1MUp8AWNJi-91" value="Agua" style="text;html=1;align=center;verticalAlign=middle;whiteSpace=wrap;rounded=0;fontSize=16;" parent="Mit0_zZkryS0uGuuiCqV-14" vertex="1">
          <mxGeometry x="839.217791411043" y="520.9249011857708" width="55.030674846625764" height="28.51778656126482" as="geometry" />
        </mxCell>
        <mxCell id="BYih-mlSwQ1MUp8AWNJi-92" value="Luz" style="text;html=1;align=center;verticalAlign=middle;whiteSpace=wrap;rounded=0;fontSize=16;" parent="Mit0_zZkryS0uGuuiCqV-14" vertex="1">
          <mxGeometry x="841.9693251533743" y="585.5652173913044" width="55.030674846625764" height="28.51778656126482" as="geometry" />
        </mxCell>
        <mxCell id="BYih-mlSwQ1MUp8AWNJi-99" value="Letra" style="text;html=1;align=center;verticalAlign=middle;whiteSpace=wrap;rounded=0;fontSize=16;" parent="Mit0_zZkryS0uGuuiCqV-14" vertex="1">
          <mxGeometry x="166.92638036809817" y="765.2272727272727" width="55.030674846625764" height="28.51778656126482" as="geometry" />
        </mxCell>
        <mxCell id="BYih-mlSwQ1MUp8AWNJi-100" value="" style="endArrow=oval;html=1;rounded=0;fontSize=12;startSize=8;endSize=8;curved=1;entryX=0.5;entryY=1;entryDx=0;entryDy=0;endFill=1;" parent="Mit0_zZkryS0uGuuiCqV-14" edge="1">
          <mxGeometry width="50" height="50" relative="1" as="geometry">
            <mxPoint x="194.175736196319" y="829.8675889328063" as="sourcePoint" />
            <mxPoint x="194.175736196319" y="793.7450592885375" as="targetPoint" />
          </mxGeometry>
        </mxCell>
        <mxCell id="BYih-mlSwQ1MUp8AWNJi-101" value="Tipo_barco" style="text;html=1;align=center;verticalAlign=middle;whiteSpace=wrap;rounded=0;fontSize=16;" parent="Mit0_zZkryS0uGuuiCqV-14" vertex="1">
          <mxGeometry x="74.29141104294479" y="765.2272727272727" width="55.030674846625764" height="28.51778656126482" as="geometry" />
        </mxCell>
        <mxCell id="BYih-mlSwQ1MUp8AWNJi-102" value="" style="endArrow=circle;html=1;rounded=0;fontSize=12;startSize=8;endSize=8;curved=1;entryX=0.5;entryY=1;entryDx=0;entryDy=0;endFill=0;" parent="Mit0_zZkryS0uGuuiCqV-14" edge="1">
          <mxGeometry width="50" height="50" relative="1" as="geometry">
            <mxPoint x="101.54076687116564" y="829.8675889328063" as="sourcePoint" />
            <mxPoint x="101.54076687116564" y="793.7450592885375" as="targetPoint" />
          </mxGeometry>
        </mxCell>
        <mxCell id="BYih-mlSwQ1MUp8AWNJi-103" value="Nº_barcos" style="text;html=1;align=center;verticalAlign=middle;whiteSpace=wrap;rounded=0;fontSize=16;" parent="Mit0_zZkryS0uGuuiCqV-14" vertex="1">
          <mxGeometry x="176.09815950920247" y="933.4822134387352" width="55.030674846625764" height="28.51778656126482" as="geometry" />
        </mxCell>
        <mxCell id="BYih-mlSwQ1MUp8AWNJi-104" value="" style="endArrow=circle;html=1;rounded=0;fontSize=12;startSize=8;endSize=8;curved=1;entryX=0.5;entryY=1;entryDx=0;entryDy=0;endFill=0;" parent="Mit0_zZkryS0uGuuiCqV-14" edge="1">
          <mxGeometry width="50" height="50" relative="1" as="geometry">
            <mxPoint x="173.34662576687117" y="887.8537549407115" as="sourcePoint" />
            <mxPoint x="201.7791411042945" y="941.0869565217391" as="targetPoint" />
          </mxGeometry>
        </mxCell>
        <mxCell id="BYih-mlSwQ1MUp8AWNJi-105" value="Profundidad" style="text;html=1;align=center;verticalAlign=middle;whiteSpace=wrap;rounded=0;fontSize=16;" parent="Mit0_zZkryS0uGuuiCqV-14" vertex="1">
          <mxGeometry x="12.840490797546012" y="851.7312252964426" width="55.030674846625764" height="28.51778656126482" as="geometry" />
        </mxCell>
        <mxCell id="BYih-mlSwQ1MUp8AWNJi-106" value="" style="endArrow=circle;html=1;rounded=0;fontSize=12;startSize=8;endSize=8;curved=1;entryX=0.5;entryY=1;entryDx=0;entryDy=0;endFill=0;exitX=0.028;exitY=0.897;exitDx=0;exitDy=0;exitPerimeter=0;" parent="Mit0_zZkryS0uGuuiCqV-14" source="BYih-mlSwQ1MUp8AWNJi-6" edge="1">
          <mxGeometry width="50" height="50" relative="1" as="geometry">
            <mxPoint x="42.84138036809816" y="920.1739130434783" as="sourcePoint" />
            <mxPoint x="42.84138036809816" y="884.0513833992095" as="targetPoint" />
          </mxGeometry>
        </mxCell>
        <mxCell id="BYih-mlSwQ1MUp8AWNJi-107" value="Ancho_amarre" style="text;html=1;align=center;verticalAlign=middle;whiteSpace=wrap;rounded=0;fontSize=16;" parent="Mit0_zZkryS0uGuuiCqV-14" vertex="1">
          <mxGeometry x="58.69938650306749" y="920.1739130434783" width="55.030674846625764" height="28.51778656126482" as="geometry" />
        </mxCell>
        <mxCell id="BYih-mlSwQ1MUp8AWNJi-108" value="" style="endArrow=circle;html=1;rounded=0;fontSize=12;startSize=8;endSize=8;curved=1;entryX=1;entryY=0.25;entryDx=0;entryDy=0;endFill=0;exitX=0.5;exitY=1;exitDx=0;exitDy=0;" parent="Mit0_zZkryS0uGuuiCqV-14" source="BYih-mlSwQ1MUp8AWNJi-6" target="BYih-mlSwQ1MUp8AWNJi-107" edge="1">
          <mxGeometry width="50" height="50" relative="1" as="geometry">
            <mxPoint x="117.39877300613495" y="959.1482213438735" as="sourcePoint" />
            <mxPoint x="117.39877300613495" y="923.0256916996047" as="targetPoint" />
          </mxGeometry>
        </mxCell>
        <mxCell id="BYih-mlSwQ1MUp8AWNJi-109" value="Especiliadad" style="text;html=1;align=center;verticalAlign=middle;whiteSpace=wrap;rounded=0;fontSize=16;" parent="Mit0_zZkryS0uGuuiCqV-14" vertex="1">
          <mxGeometry y="295.6343873517787" width="55.030674846625764" height="28.51778656126482" as="geometry" />
        </mxCell>
        <mxCell id="BYih-mlSwQ1MUp8AWNJi-110" value="" style="endArrow=circle;html=1;rounded=0;fontSize=12;startSize=8;endSize=8;curved=1;entryX=0.5;entryY=1;entryDx=0;entryDy=0;endFill=0;exitX=0.016;exitY=0.643;exitDx=0;exitDy=0;exitPerimeter=0;" parent="Mit0_zZkryS0uGuuiCqV-14" edge="1">
          <mxGeometry width="50" height="50" relative="1" as="geometry">
            <mxPoint x="95.38650306748474" y="331.3576679841897" as="sourcePoint" />
            <mxPoint x="52.086533742331284" y="328.90513833992094" as="targetPoint" />
            <Array as="points" />
          </mxGeometry>
        </mxCell>
        <mxCell id="BYih-mlSwQ1MUp8AWNJi-111" value="Fecha_alquiler" style="text;html=1;align=center;verticalAlign=middle;whiteSpace=wrap;rounded=0;fontSize=16;" parent="Mit0_zZkryS0uGuuiCqV-14" vertex="1">
          <mxGeometry x="355.86503067484665" y="500.9624505928854" width="55.030674846625764" height="28.51778656126482" as="geometry" />
        </mxCell>
        <mxCell id="BYih-mlSwQ1MUp8AWNJi-112" value="" style="endArrow=circle;html=1;rounded=0;fontSize=12;startSize=8;endSize=8;curved=1;entryX=0.5;entryY=1;entryDx=0;entryDy=0;endFill=0;" parent="Mit0_zZkryS0uGuuiCqV-14" source="BYih-mlSwQ1MUp8AWNJi-54" edge="1">
          <mxGeometry width="50" height="50" relative="1" as="geometry">
            <mxPoint x="383.1143865030675" y="565.602766798419" as="sourcePoint" />
            <mxPoint x="383.1143865030675" y="529.4802371541501" as="targetPoint" />
          </mxGeometry>
        </mxCell>
        <mxCell id="Mit0_zZkryS0uGuuiCqV-1" value="" style="endArrow=oval;html=1;rounded=0;fontSize=12;startSize=8;endSize=8;curved=1;endFill=1;" edge="1" target="Mit0_zZkryS0uGuuiCqV-2" parent="Mit0_zZkryS0uGuuiCqV-14">
          <mxGeometry width="50" height="50" relative="1" as="geometry">
            <mxPoint x="218.2883435582822" y="89.35573122529644" as="sourcePoint" />
            <mxPoint x="252.2239263803681" y="20.91304347826087" as="targetPoint" />
          </mxGeometry>
        </mxCell>
        <mxCell id="Mit0_zZkryS0uGuuiCqV-2" value="DNI" style="text;html=1;align=center;verticalAlign=middle;whiteSpace=wrap;rounded=0;fontSize=16;" vertex="1" parent="Mit0_zZkryS0uGuuiCqV-14">
          <mxGeometry x="188.93865030674849" width="55.030674846625764" height="28.51778656126482" as="geometry" />
        </mxCell>
        <mxCell id="Mit0_zZkryS0uGuuiCqV-3" value="" style="endArrow=circle;html=1;rounded=0;fontSize=12;startSize=8;endSize=8;curved=1;endFill=0;" edge="1" target="Mit0_zZkryS0uGuuiCqV-4" parent="Mit0_zZkryS0uGuuiCqV-14">
          <mxGeometry width="50" height="50" relative="1" as="geometry">
            <mxPoint x="318.26073619631904" y="296.5849802371541" as="sourcePoint" />
            <mxPoint x="355.86503067484665" y="255.7094861660079" as="targetPoint" />
          </mxGeometry>
        </mxCell>
        <mxCell id="Mit0_zZkryS0uGuuiCqV-4" value="Fecha_ingreso" style="text;html=1;align=center;verticalAlign=middle;whiteSpace=wrap;rounded=0;fontSize=16;" vertex="1" parent="Mit0_zZkryS0uGuuiCqV-14">
          <mxGeometry x="339.3558282208589" y="233.84584980237153" width="55.030674846625764" height="28.51778656126482" as="geometry" />
        </mxCell>
        <mxCell id="Mit0_zZkryS0uGuuiCqV-5" value="(0,n)" style="text;html=1;align=center;verticalAlign=middle;whiteSpace=wrap;rounded=0;" vertex="1" parent="Mit0_zZkryS0uGuuiCqV-14">
          <mxGeometry x="315.50920245398777" y="383.0889328063241" width="55.030674846625764" height="28.51778656126482" as="geometry" />
        </mxCell>
        <mxCell id="Mit0_zZkryS0uGuuiCqV-6" value="(0,n)" style="text;html=1;align=center;verticalAlign=middle;whiteSpace=wrap;rounded=0;" vertex="1" parent="Mit0_zZkryS0uGuuiCqV-14">
          <mxGeometry x="581.4907975460123" y="604.5770750988142" width="55.030674846625764" height="28.51778656126482" as="geometry" />
        </mxCell>
        <mxCell id="Mit0_zZkryS0uGuuiCqV-7" value="(0,n)" style="text;html=1;align=center;verticalAlign=middle;whiteSpace=wrap;rounded=0;" vertex="1" parent="Mit0_zZkryS0uGuuiCqV-14">
          <mxGeometry x="139.41104294478527" y="357.42292490118575" width="55.030674846625764" height="28.51778656126482" as="geometry" />
        </mxCell>
        <mxCell id="Mit0_zZkryS0uGuuiCqV-8" value="(0,n)" style="text;html=1;align=center;verticalAlign=middle;whiteSpace=wrap;rounded=0;" vertex="1" parent="Mit0_zZkryS0uGuuiCqV-14">
          <mxGeometry x="139.41104294478527" y="791.8438735177865" width="55.030674846625764" height="28.51778656126482" as="geometry" />
        </mxCell>
        <mxCell id="Mit0_zZkryS0uGuuiCqV-9" value="(1,1)" style="text;html=1;align=center;verticalAlign=middle;whiteSpace=wrap;rounded=0;" vertex="1" parent="Mit0_zZkryS0uGuuiCqV-14">
          <mxGeometry x="199.02760736196322" y="864.088932806324" width="55.030674846625764" height="28.51778656126482" as="geometry" />
        </mxCell>
        <mxCell id="Mit0_zZkryS0uGuuiCqV-10" value="(0,n)" style="text;html=1;align=center;verticalAlign=middle;whiteSpace=wrap;rounded=0;" vertex="1" parent="Mit0_zZkryS0uGuuiCqV-14">
          <mxGeometry x="691.5521472392638" y="637.8478260869565" width="55.030674846625764" height="28.51778656126482" as="geometry" />
        </mxCell>
        <mxCell id="Mit0_zZkryS0uGuuiCqV-11" value="(1,1)" style="text;html=1;align=center;verticalAlign=middle;whiteSpace=wrap;rounded=0;" vertex="1" parent="Mit0_zZkryS0uGuuiCqV-14">
          <mxGeometry x="640.1901840490798" y="539.9367588932806" width="55.030674846625764" height="28.51778656126482" as="geometry" />
        </mxCell>
        <mxCell id="Mit0_zZkryS0uGuuiCqV-13" value="(0,1)" style="text;html=1;align=center;verticalAlign=middle;whiteSpace=wrap;rounded=0;" vertex="1" parent="Mit0_zZkryS0uGuuiCqV-14">
          <mxGeometry x="636.5214723926381" y="357.42292490118575" width="55.030674846625764" height="28.51778656126482" as="geometry" />
        </mxCell>
      </root>
    </mxGraphModel>
  </diagram>
</mxfile>
